<svg width="32" height="32" viewBox="0 0 42 42" fill="none" xmlns="http://www.w3.org/2000/svg">
<rect width="42" height="42" rx="8" fill="#0c1a3a"/>
<g transform="translate(1, 1) scale(0.95)">
<path fill-rule="evenodd" clip-rule="evenodd" d="M2.76911 14.4302C4.94158 14.539 7.09988 14.8429 9.21792 15.3383C11.2651 15.7889 13.2221 16.5799 15.0074 17.6783C16.5973 18.7077 17.9323 19.9804 18.4636 21.8937C18.5734 22.2906 18.6411 22.6986 18.7257 23.1011C19.1187 24.9787 20.6313 25.838 22.1587 26.159C24.4661 26.6432 26.7019 26.1569 28.9429 25.6492C32.171 24.9183 35.1924 23.6306 38.216 22.3355C38.3353 22.282 38.4652 22.2559 38.5959 22.2593C38.7267 22.2627 38.855 22.2955 38.9714 22.3551C39.0623 22.4655 39.1305 22.5927 39.1721 22.7294C39.2138 22.8661 39.2281 23.0097 39.2142 23.152C39.1515 23.7303 39.0515 24.304 38.9149 24.8695C38.8341 25.2395 38.6535 25.5803 38.3927 25.855C38.132 26.1296 37.8009 26.3276 37.4356 26.4274C34.9777 27.2587 32.5349 28.1432 30.0429 28.8517C27.9914 29.4783 25.8487 29.7541 23.7054 29.6674C22.1801 29.5776 20.6906 29.2815 19.499 28.1794C18.7222 27.4512 18.2311 26.4695 18.1141 25.4113C18.007 24.6177 17.7367 23.8548 17.3203 23.1708C16.904 22.4867 16.3505 21.8962 15.6948 21.4365C13.7888 19.9762 11.5671 19.2316 9.25335 18.6941C6.65169 18.1002 3.98487 17.8408 1.31752 17.9221C0.499624 17.9428 0.207693 17.5621 0.350851 16.7277C0.425544 16.3218 0.525029 15.9208 0.648748 15.527C0.923486 14.6228 1.19542 14.4312 2.14735 14.4302H2.76911Z" fill="#ffffff"/>
<path fill-rule="evenodd" clip-rule="evenodd" d="M5.24696 8.89541C8.82031 9.33156 12.2926 10.0954 15.3386 12.1628C16.8151 13.1656 17.9783 14.4397 18.4944 16.2007C18.6821 16.847 18.7253 17.5495 18.9976 18.153C19.6969 19.7007 21.079 20.3085 22.6548 20.4856C26.0776 20.8716 29.3085 19.9632 32.4885 18.867C34.0952 18.3134 35.664 17.6337 37.2419 16.9958C37.711 16.8063 38.5598 16.4723 38.9829 16.9365C39.1994 17.1737 39.2247 17.7042 39.2808 18.0148C39.5138 19.2916 39.157 19.9604 37.9454 20.4569C35.4104 21.5123 32.8043 22.3879 30.1464 23.0772C28.1931 23.6205 26.1769 23.9047 24.1495 23.9225C22.6123 23.9043 21.0856 23.6913 19.7986 22.6885C19.3257 22.3122 18.9321 21.8459 18.6406 21.3165C18.349 20.787 18.1654 20.2051 18.1004 19.6042C17.9201 18.2716 17.2621 17.0497 16.2488 16.1656C14.3421 14.4505 12.0066 13.6172 9.56452 13.0249C7.63391 12.5441 5.6579 12.2687 3.6694 12.2031C3.42506 12.1837 3.18456 12.1307 2.95466 12.0456C2.84798 12.0223 2.74793 11.9752 2.662 11.9079C2.57608 11.8405 2.50649 11.7546 2.45844 11.6565C2.41039 11.5585 2.38513 11.4508 2.38453 11.3416C2.38394 11.2324 2.40803 11.1245 2.45501 11.0259C2.72112 10.446 3.05821 9.9014 3.45853 9.40454C3.9073 8.88734 4.58976 8.87541 5.24801 8.89576" fill="#ffffff"/>
<path fill-rule="evenodd" clip-rule="evenodd" d="M24.4892 35.3392C22.9713 35.4185 21.4913 35.2567 20.1643 34.4297C19.6831 34.1499 19.2672 33.7707 18.9442 33.3174C18.6213 32.8641 18.3988 32.3471 18.2917 31.8009C17.9682 30.1167 17.4264 28.5749 16.0513 27.4479C14.7909 26.4354 13.3566 25.661 11.8186 25.1626C9.64245 24.4028 7.37246 23.9447 5.07194 23.8009C3.90983 23.7366 2.74842 23.6605 1.58561 23.617C0.504201 23.577 0.187709 23.2889 0.117182 22.2261C0.0954273 21.8889 0.047006 21.5542 0.00981285 21.2177C-0.060363 20.5633 0.262095 20.118 0.922098 20.1447C2.49614 20.2078 4.08001 20.25 5.63896 20.4636C7.2893 20.6916 8.92425 21.0197 10.5348 21.4461C12.6295 21.9765 14.5814 22.9628 16.251 24.3345C17.6096 25.4893 18.4979 27.102 18.7475 28.8675C19.0531 30.5812 20.3057 31.464 21.9113 31.8342C24.0678 32.3332 26.1984 32.0051 28.3236 31.5437C30.7981 30.972 33.2196 30.1916 35.5623 29.2111C35.9598 29.0507 36.3493 28.8686 36.7553 28.7419C36.845 28.7091 36.9408 28.6961 37.0361 28.7037C37.1313 28.7113 37.2238 28.7395 37.3072 28.7861C37.3516 28.8698 37.3751 28.9629 37.3758 29.0576C37.3766 29.1522 37.3545 29.2457 37.3114 29.33C36.7619 30.29 36.2275 31.2662 35.5942 32.1697C34.9275 33.1248 33.8609 33.4981 32.7963 33.8318C30.6385 34.5252 28.4235 35.026 26.1773 35.3283C25.6149 35.3672 25.0507 35.3707 24.4878 35.3388" fill="#71B32F"/>
<path fill-rule="evenodd" clip-rule="evenodd" d="M6.03539 29.619C6.33153 29.8748 6.6196 30.1425 6.92557 30.3871C8.95049 32.0046 11.0238 33.5664 12.9926 35.2496C14.5973 36.5599 15.9125 38.1891 16.8547 40.0342C15.9863 39.8391 15.2056 39.7128 14.4575 39.4882C11.9411 38.7445 9.58293 37.5442 7.50066 35.9475C4.78486 33.8548 2.63642 31.3401 1.53607 28.0302C1.42577 27.6909 1.34431 27.3429 1.29256 26.9899C1.26011 26.8597 1.2604 26.7235 1.29339 26.5935C1.32639 26.4635 1.39106 26.3436 1.48165 26.2447C1.57223 26.1457 1.6859 26.0707 1.81252 26.0264C1.93914 25.982 2.07477 25.9697 2.2073 25.9906C3.38655 26.056 4.56014 26.1998 5.7203 26.4211C7.5182 26.8239 9.3126 27.2965 11.0621 27.8741C13.1591 28.5466 15.0779 29.6825 16.6761 31.1976C18.0193 32.5024 18.9323 34.1861 19.293 36.0236C19.5705 37.3948 19.7569 38.7829 19.8509 40.1787C18.3974 37.5498 16.4305 35.2398 14.067 33.3857C11.7368 31.5349 9.05211 30.1811 6.17855 29.4078C6.13048 29.478 6.08346 29.5481 6.03539 29.6183" fill="#71B32F"/>
<path fill-rule="evenodd" clip-rule="evenodd" d="M24.3696 18.239C23.0538 18.2057 21.7551 17.9337 20.5366 17.4362C19.1579 16.8604 18.3239 15.4397 18.1092 13.9976C17.8351 12.1569 16.8274 10.8607 15.4028 9.8323C13.5993 8.52879 11.5323 7.82597 9.38421 7.34106C8.56386 7.15439 7.73508 7.00913 6.92806 6.77965C6.23788 6.58141 6.13226 6.14246 6.67262 5.69193C7.45157 5.04035 8.13017 4.12139 9.26912 4.15999C10.0087 4.20736 10.7378 4.35988 11.4344 4.61298C13.6242 5.34456 15.6313 6.39018 17.1951 8.16668C18.1 9.1937 18.4618 10.4246 18.7299 11.726C19.0548 13.305 20.1285 14.1821 21.6225 14.6193C23.4008 15.1386 25.1773 14.9636 26.9664 14.6702C30.1419 14.1502 33.1324 13.0516 36.1026 11.8632C36.8665 11.5569 37.4047 11.7151 37.7584 12.5327C37.8637 12.7727 37.9409 13.0239 38.0391 13.2671C38.2258 13.7376 38.371 14.3299 37.9412 14.7144C37.7194 14.8882 37.4663 15.0178 37.1956 15.0962C36.0159 15.5197 34.837 15.9432 33.6517 16.3499C30.7626 17.3397 27.5134 18.3499 24.3706 18.238" fill="#ffffff"/>
<path fill-rule="evenodd" clip-rule="evenodd" d="M24.465 12.66C22.9236 12.6439 21.4369 12.452 20.0934 11.6109C18.8797 10.8513 18.3127 9.66635 18.1081 8.34143C17.9934 7.56983 17.7258 6.8289 17.321 6.16204C16.9163 5.49518 16.3825 4.91582 15.7509 4.4579C15.1165 3.97158 14.3748 3.63088 13.7169 3.16912C13.3817 2.89013 13.0719 2.5819 12.7913 2.24806C13.0941 2.02453 13.4166 1.82899 13.7548 1.66385C15.5404 0.974724 16.3313 1.4249 17.4741 2.86351C18.238 3.82281 18.4881 4.97159 18.7411 6.13159C19.0594 7.59511 20.0488 8.47231 21.4106 8.91792C23.3053 9.53793 25.2383 9.42705 27.1366 8.97617C29.224 8.48108 31.2843 7.86809 33.3552 7.30248C33.6141 7.21175 33.8956 7.20818 34.1567 7.29231C34.4179 7.37644 34.6443 7.54365 34.8016 7.76844C35.1138 8.16809 35.43 8.56564 35.7195 8.98108C35.7992 9.07451 35.8542 9.18645 35.8796 9.30665C35.9049 9.42685 35.8997 9.55148 35.8644 9.66914C35.8291 9.78681 35.7649 9.89374 35.6776 9.98017C35.5903 10.0666 35.4827 10.1298 35.3647 10.1639C33.7886 10.6934 32.2173 11.2516 30.6089 11.6657C29.1447 12.0429 27.6398 12.2622 26.1464 12.5197C25.5938 12.6155 25.0261 12.6165 24.464 12.66" fill="#71B32F"/>
<path fill-rule="evenodd" clip-rule="evenodd" d="M24.2713 7.27687C22.7099 7.20072 21.2281 6.97827 19.959 5.98563C18.8225 5.09791 18.3604 3.84878 18.0804 2.49789C18.0074 2.14947 17.905 1.80456 17.8653 1.45298C17.8429 1.2635 17.8793 0.914376 17.9572 0.894025C18.2182 0.83298 18.4903 0.83744 18.7492 0.907008C18.8836 0.942095 19.0085 1.12876 19.0818 1.27438C19.8032 2.70982 21.1137 3.21193 22.5597 3.44983C24.2885 3.73474 25.9931 3.42492 27.7075 3.19334C28.3901 3.12835 29.0783 3.23035 29.7127 3.49053C30.3367 3.79313 30.9204 4.17244 31.4503 4.61966C31.9854 5.00563 31.9387 5.51405 31.3191 5.72002C30.1729 6.12251 29.0064 6.46439 27.8243 6.74423C26.6566 7.00143 25.4573 7.10529 24.2717 7.27651" fill="#71B32F"/>
<path fill-rule="evenodd" clip-rule="evenodd" d="M20.9116 40.2675C21.9828 38.9543 23.3319 37.8951 24.8618 37.1661C26.3973 36.3824 28.0646 35.8896 29.7794 35.7124C30.302 35.6727 30.8276 35.7146 31.3373 35.8366C31.5703 35.8871 31.7548 36.1678 31.9608 36.3436C31.8306 36.515 31.6803 36.67 31.5131 36.8054C29.246 38.1959 26.7551 39.1831 24.1509 39.7229C23.2737 39.91 22.3867 40.0696 21.5022 40.2328C21.3062 40.257 21.109 40.2683 20.9116 40.2675Z" fill="#71B32F"/>
</g>
</svg>
